<svg viewBox="0 0 16 16" width="16px" height="16px">
<path d="M8.26210309,0.00329896907 L6.20602062,0 C3.89608247,0 2.40329897,1.53154639 2.40329897,3.90202062 L2.40329897,5.7011134 L0.336,5.7011134 C0.157360825,5.7011134 0.0127010309,5.84593814 0.0127010309,6.02457732 L0.0127010309,8.63125773 C0.0127010309,8.80989691 0.157525773,8.9545567 0.336,8.9545567 L2.40329897,8.9545567 L2.40329897,15.5320412 C2.40329897,15.7106804 2.54795876,15.8553402 2.72659794,15.8553402 L5.42383505,15.8553402 C5.60247423,15.8553402 5.74713402,15.7105155 5.74713402,15.5320412 L5.74713402,8.9545567 L8.16428866,8.9545567 C8.34292784,8.9545567 8.48758763,8.80989691 8.48758763,8.63125773 L8.48857732,6.02457732 C8.48857732,5.93880412 8.45443299,5.85665979 8.39389691,5.79595876 C8.33336082,5.73525773 8.2508866,5.7011134 8.1651134,5.7011134 L5.74713402,5.7011134 L5.74713402,4.176 C5.74713402,3.44296907 5.92181443,3.07084536 6.87670103,3.07084536 L8.2617732,3.07035052 C8.44024742,3.07035052 8.58490722,2.92552577 8.58490722,2.74705155 L8.58490722,0.326597938 C8.58490722,0.14828866 8.44041237,0.00362886598 8.26210309,0.00329896907 Z" id="Shape"></path>
</svg>
